<mxfile host="Electron" modified="2023-09-20T00:23:24.368Z" agent="Mozilla/5.0 (Windows NT 10.0; Win64; x64) AppleWebKit/537.36 (KHTML, like Gecko) draw.io/21.2.1 Chrome/112.0.5615.87 Electron/24.1.2 Safari/537.36" etag="1KcQsOmiBPgGLRG_4mQS" version="21.2.1" type="device">
  <diagram name="페이지-1" id="iwLooRadtHO6xEn8P8Ku">
    <mxGraphModel dx="2170" dy="2040" grid="0" gridSize="10" guides="1" tooltips="1" connect="1" arrows="1" fold="1" page="0" pageScale="1" pageWidth="827" pageHeight="1169" math="0" shadow="0">
      <root>
        <mxCell id="0" />
        <mxCell id="1" parent="0" />
        <mxCell id="E8r4IcUr0whJtbiXx9n1-1" value="Actor" style="shape=umlActor;verticalLabelPosition=bottom;verticalAlign=top;html=1;outlineConnect=0;fontSize=16;" parent="1" vertex="1">
          <mxGeometry x="-181" y="269.5" width="30" height="60" as="geometry" />
        </mxCell>
        <mxCell id="E8r4IcUr0whJtbiXx9n1-35" style="edgeStyle=orthogonalEdgeStyle;rounded=0;orthogonalLoop=1;jettySize=auto;html=1;entryX=0;entryY=0.5;entryDx=0;entryDy=0;fontSize=12;startSize=8;endSize=8;exitX=1;exitY=0.5;exitDx=0;exitDy=0;" parent="1" source="E8r4IcUr0whJtbiXx9n1-2" target="E8r4IcUr0whJtbiXx9n1-13" edge="1">
          <mxGeometry relative="1" as="geometry">
            <Array as="points">
              <mxPoint x="172" y="299" />
              <mxPoint x="172" y="209" />
            </Array>
          </mxGeometry>
        </mxCell>
        <mxCell id="E8r4IcUr0whJtbiXx9n1-36" style="edgeStyle=none;curved=1;rounded=0;orthogonalLoop=1;jettySize=auto;html=1;entryX=0;entryY=0.5;entryDx=0;entryDy=0;fontSize=12;startSize=8;endSize=8;" parent="1" source="E8r4IcUr0whJtbiXx9n1-2" target="E8r4IcUr0whJtbiXx9n1-18" edge="1">
          <mxGeometry relative="1" as="geometry" />
        </mxCell>
        <mxCell id="E8r4IcUr0whJtbiXx9n1-37" style="edgeStyle=orthogonalEdgeStyle;rounded=0;orthogonalLoop=1;jettySize=auto;html=1;entryX=0;entryY=0.5;entryDx=0;entryDy=0;fontSize=12;startSize=8;endSize=8;exitX=1;exitY=0.5;exitDx=0;exitDy=0;" parent="1" source="E8r4IcUr0whJtbiXx9n1-2" target="E8r4IcUr0whJtbiXx9n1-9" edge="1">
          <mxGeometry relative="1" as="geometry">
            <Array as="points">
              <mxPoint x="172" y="299" />
              <mxPoint x="172" y="390" />
            </Array>
          </mxGeometry>
        </mxCell>
        <mxCell id="E8r4IcUr0whJtbiXx9n1-39" style="edgeStyle=orthogonalEdgeStyle;rounded=0;orthogonalLoop=1;jettySize=auto;html=1;entryX=0;entryY=0.5;entryDx=0;entryDy=0;fontSize=12;startSize=8;endSize=8;exitX=1;exitY=0.5;exitDx=0;exitDy=0;" parent="1" source="E8r4IcUr0whJtbiXx9n1-2" target="E8r4IcUr0whJtbiXx9n1-10" edge="1">
          <mxGeometry relative="1" as="geometry">
            <Array as="points">
              <mxPoint x="172" y="299" />
              <mxPoint x="172" y="475" />
            </Array>
          </mxGeometry>
        </mxCell>
        <mxCell id="E8r4IcUr0whJtbiXx9n1-2" value="메인화면" style="rounded=1;whiteSpace=wrap;html=1;fontSize=16;" parent="1" vertex="1">
          <mxGeometry x="-16" y="269.5" width="120" height="60" as="geometry" />
        </mxCell>
        <mxCell id="E8r4IcUr0whJtbiXx9n1-38" style="edgeStyle=orthogonalEdgeStyle;rounded=0;orthogonalLoop=1;jettySize=auto;html=1;entryX=0;entryY=0.5;entryDx=0;entryDy=0;fontSize=12;startSize=8;endSize=8;" parent="1" source="E8r4IcUr0whJtbiXx9n1-9" target="E8r4IcUr0whJtbiXx9n1-28" edge="1">
          <mxGeometry relative="1" as="geometry">
            <Array as="points">
              <mxPoint x="550" y="390" />
              <mxPoint x="550" y="475" />
            </Array>
          </mxGeometry>
        </mxCell>
        <mxCell id="E8r4IcUr0whJtbiXx9n1-9" value="메모작성" style="rounded=1;whiteSpace=wrap;html=1;fontSize=16;" parent="1" vertex="1">
          <mxGeometry x="239" y="360" width="120" height="60" as="geometry" />
        </mxCell>
        <mxCell id="E8r4IcUr0whJtbiXx9n1-26" style="edgeStyle=none;curved=1;rounded=0;orthogonalLoop=1;jettySize=auto;html=1;entryX=0;entryY=0.5;entryDx=0;entryDy=0;fontSize=12;startSize=8;endSize=8;" parent="1" source="E8r4IcUr0whJtbiXx9n1-10" target="E8r4IcUr0whJtbiXx9n1-11" edge="1">
          <mxGeometry relative="1" as="geometry" />
        </mxCell>
        <mxCell id="E8r4IcUr0whJtbiXx9n1-27" style="edgeStyle=orthogonalEdgeStyle;rounded=0;orthogonalLoop=1;jettySize=auto;html=1;entryX=0;entryY=0.5;entryDx=0;entryDy=0;fontSize=12;startSize=8;endSize=8;exitX=1;exitY=0.5;exitDx=0;exitDy=0;" parent="1" source="E8r4IcUr0whJtbiXx9n1-10" target="E8r4IcUr0whJtbiXx9n1-12" edge="1">
          <mxGeometry relative="1" as="geometry" />
        </mxCell>
        <mxCell id="E8r4IcUr0whJtbiXx9n1-10" value="drawer" style="rounded=1;whiteSpace=wrap;html=1;fontSize=16;" parent="1" vertex="1">
          <mxGeometry x="239" y="445" width="120" height="60" as="geometry" />
        </mxCell>
        <mxCell id="E8r4IcUr0whJtbiXx9n1-29" style="edgeStyle=none;curved=1;rounded=0;orthogonalLoop=1;jettySize=auto;html=1;entryX=0;entryY=0.5;entryDx=0;entryDy=0;fontSize=12;startSize=8;endSize=8;" parent="1" source="E8r4IcUr0whJtbiXx9n1-11" target="E8r4IcUr0whJtbiXx9n1-28" edge="1">
          <mxGeometry relative="1" as="geometry" />
        </mxCell>
        <mxCell id="E8r4IcUr0whJtbiXx9n1-11" value="로그인" style="rounded=1;whiteSpace=wrap;html=1;fontSize=16;" parent="1" vertex="1">
          <mxGeometry x="403" y="445" width="120" height="60" as="geometry" />
        </mxCell>
        <mxCell id="E8r4IcUr0whJtbiXx9n1-30" style="edgeStyle=orthogonalEdgeStyle;rounded=0;orthogonalLoop=1;jettySize=auto;html=1;entryX=0;entryY=0.5;entryDx=0;entryDy=0;fontSize=12;startSize=8;endSize=8;" parent="1" source="E8r4IcUr0whJtbiXx9n1-12" target="E8r4IcUr0whJtbiXx9n1-28" edge="1">
          <mxGeometry relative="1" as="geometry" />
        </mxCell>
        <mxCell id="E8r4IcUr0whJtbiXx9n1-12" value="마이페이지" style="rounded=1;whiteSpace=wrap;html=1;fontSize=16;" parent="1" vertex="1">
          <mxGeometry x="405" y="549" width="120" height="60" as="geometry" />
        </mxCell>
        <mxCell id="E8r4IcUr0whJtbiXx9n1-13" value="식자재 구매" style="rounded=1;whiteSpace=wrap;html=1;fontSize=16;" parent="1" vertex="1">
          <mxGeometry x="237" y="179" width="120" height="60" as="geometry" />
        </mxCell>
        <mxCell id="E8r4IcUr0whJtbiXx9n1-14" style="edgeStyle=none;curved=1;rounded=0;orthogonalLoop=1;jettySize=auto;html=1;exitX=0.5;exitY=0.5;exitDx=0;exitDy=0;exitPerimeter=0;fontSize=12;startSize=8;endSize=8;entryX=0;entryY=0.5;entryDx=0;entryDy=0;" parent="1" source="E8r4IcUr0whJtbiXx9n1-1" target="E8r4IcUr0whJtbiXx9n1-2" edge="1">
          <mxGeometry relative="1" as="geometry" />
        </mxCell>
        <mxCell id="NLIS4XyhHWRJ7z31r4XH-2" style="edgeStyle=orthogonalEdgeStyle;rounded=0;orthogonalLoop=1;jettySize=auto;html=1;entryX=0;entryY=0.5;entryDx=0;entryDy=0;" edge="1" parent="1" source="E8r4IcUr0whJtbiXx9n1-18" target="E8r4IcUr0whJtbiXx9n1-28">
          <mxGeometry relative="1" as="geometry">
            <Array as="points">
              <mxPoint x="550" y="300" />
              <mxPoint x="550" y="475" />
            </Array>
          </mxGeometry>
        </mxCell>
        <mxCell id="E8r4IcUr0whJtbiXx9n1-18" value="메모확인" style="rounded=1;whiteSpace=wrap;html=1;fontSize=16;" parent="1" vertex="1">
          <mxGeometry x="239" y="269.5" width="120" height="60" as="geometry" />
        </mxCell>
        <mxCell id="E8r4IcUr0whJtbiXx9n1-28" value="로그인페이지" style="rounded=1;whiteSpace=wrap;html=1;fontSize=16;" parent="1" vertex="1">
          <mxGeometry x="575" y="445" width="120" height="60" as="geometry" />
        </mxCell>
        <mxCell id="E8r4IcUr0whJtbiXx9n1-40" value="Actor" style="shape=umlActor;verticalLabelPosition=bottom;verticalAlign=top;html=1;outlineConnect=0;fontSize=16;" parent="1" vertex="1">
          <mxGeometry x="-153" y="1122.5" width="30" height="60" as="geometry" />
        </mxCell>
        <mxCell id="E8r4IcUr0whJtbiXx9n1-42" style="edgeStyle=orthogonalEdgeStyle;rounded=0;orthogonalLoop=1;jettySize=auto;html=1;entryX=0;entryY=0.5;entryDx=0;entryDy=0;fontSize=12;startSize=8;endSize=8;exitX=1;exitY=0.5;exitDx=0;exitDy=0;" parent="1" source="E8r4IcUr0whJtbiXx9n1-46" target="E8r4IcUr0whJtbiXx9n1-56" edge="1">
          <mxGeometry relative="1" as="geometry">
            <Array as="points">
              <mxPoint x="200" y="1152" />
              <mxPoint x="200" y="1062" />
            </Array>
          </mxGeometry>
        </mxCell>
        <mxCell id="E8r4IcUr0whJtbiXx9n1-43" style="edgeStyle=none;curved=1;rounded=0;orthogonalLoop=1;jettySize=auto;html=1;entryX=0;entryY=0.5;entryDx=0;entryDy=0;fontSize=12;startSize=8;endSize=8;" parent="1" source="E8r4IcUr0whJtbiXx9n1-46" target="E8r4IcUr0whJtbiXx9n1-63" edge="1">
          <mxGeometry relative="1" as="geometry" />
        </mxCell>
        <mxCell id="E8r4IcUr0whJtbiXx9n1-44" style="edgeStyle=orthogonalEdgeStyle;rounded=0;orthogonalLoop=1;jettySize=auto;html=1;entryX=0;entryY=0.5;entryDx=0;entryDy=0;fontSize=12;startSize=8;endSize=8;exitX=1;exitY=0.5;exitDx=0;exitDy=0;" parent="1" source="E8r4IcUr0whJtbiXx9n1-46" target="E8r4IcUr0whJtbiXx9n1-48" edge="1">
          <mxGeometry relative="1" as="geometry" />
        </mxCell>
        <mxCell id="E8r4IcUr0whJtbiXx9n1-45" style="edgeStyle=orthogonalEdgeStyle;rounded=0;orthogonalLoop=1;jettySize=auto;html=1;entryX=0;entryY=0.5;entryDx=0;entryDy=0;fontSize=12;startSize=8;endSize=8;exitX=1;exitY=0.5;exitDx=0;exitDy=0;" parent="1" source="E8r4IcUr0whJtbiXx9n1-46" target="E8r4IcUr0whJtbiXx9n1-51" edge="1">
          <mxGeometry relative="1" as="geometry" />
        </mxCell>
        <mxCell id="E8r4IcUr0whJtbiXx9n1-46" value="메인화면" style="rounded=1;whiteSpace=wrap;html=1;fontSize=16;" parent="1" vertex="1">
          <mxGeometry x="12" y="1122.5" width="120" height="60" as="geometry" />
        </mxCell>
        <mxCell id="E8r4IcUr0whJtbiXx9n1-48" value="메모 작성" style="rounded=1;whiteSpace=wrap;html=1;fontSize=16;" parent="1" vertex="1">
          <mxGeometry x="267" y="1213" width="120" height="60" as="geometry" />
        </mxCell>
        <mxCell id="E8r4IcUr0whJtbiXx9n1-49" style="edgeStyle=none;curved=1;rounded=0;orthogonalLoop=1;jettySize=auto;html=1;entryX=0;entryY=0.5;entryDx=0;entryDy=0;fontSize=12;startSize=8;endSize=8;" parent="1" source="E8r4IcUr0whJtbiXx9n1-51" target="E8r4IcUr0whJtbiXx9n1-53" edge="1">
          <mxGeometry relative="1" as="geometry" />
        </mxCell>
        <mxCell id="E8r4IcUr0whJtbiXx9n1-72" style="edgeStyle=orthogonalEdgeStyle;rounded=0;orthogonalLoop=1;jettySize=auto;html=1;entryX=0;entryY=0.5;entryDx=0;entryDy=0;fontSize=12;startSize=8;endSize=8;exitX=1;exitY=0.5;exitDx=0;exitDy=0;" parent="1" source="E8r4IcUr0whJtbiXx9n1-51" target="E8r4IcUr0whJtbiXx9n1-55" edge="1">
          <mxGeometry relative="1" as="geometry" />
        </mxCell>
        <mxCell id="E8r4IcUr0whJtbiXx9n1-51" value="drawer" style="rounded=1;whiteSpace=wrap;html=1;fontSize=16;" parent="1" vertex="1">
          <mxGeometry x="267" y="1298" width="120" height="60" as="geometry" />
        </mxCell>
        <mxCell id="E8r4IcUr0whJtbiXx9n1-53" value="로그아웃" style="rounded=1;whiteSpace=wrap;html=1;fontSize=16;" parent="1" vertex="1">
          <mxGeometry x="431" y="1298" width="120" height="60" as="geometry" />
        </mxCell>
        <mxCell id="E8r4IcUr0whJtbiXx9n1-55" value="마이페이지" style="rounded=1;whiteSpace=wrap;html=1;fontSize=16;" parent="1" vertex="1">
          <mxGeometry x="431" y="1402" width="120" height="60" as="geometry" />
        </mxCell>
        <mxCell id="E8r4IcUr0whJtbiXx9n1-56" value="식자재 구매" style="rounded=1;whiteSpace=wrap;html=1;fontSize=16;" parent="1" vertex="1">
          <mxGeometry x="265" y="1032" width="120" height="60" as="geometry" />
        </mxCell>
        <mxCell id="E8r4IcUr0whJtbiXx9n1-57" style="edgeStyle=none;curved=1;rounded=0;orthogonalLoop=1;jettySize=auto;html=1;exitX=0.5;exitY=0.5;exitDx=0;exitDy=0;exitPerimeter=0;fontSize=12;startSize=8;endSize=8;entryX=0;entryY=0.5;entryDx=0;entryDy=0;" parent="1" source="E8r4IcUr0whJtbiXx9n1-40" target="E8r4IcUr0whJtbiXx9n1-46" edge="1">
          <mxGeometry relative="1" as="geometry" />
        </mxCell>
        <mxCell id="E8r4IcUr0whJtbiXx9n1-63" value="메모확인" style="rounded=1;whiteSpace=wrap;html=1;fontSize=16;" parent="1" vertex="1">
          <mxGeometry x="267" y="1122.5" width="120" height="60" as="geometry" />
        </mxCell>
        <mxCell id="E8r4IcUr0whJtbiXx9n1-70" value="&lt;font style=&quot;font-size: 42px;&quot;&gt;비로그인&lt;/font&gt;" style="text;html=1;strokeColor=none;fillColor=none;align=center;verticalAlign=middle;whiteSpace=wrap;rounded=0;fontSize=16;" parent="1" vertex="1">
          <mxGeometry x="-302" y="-74" width="370" height="292" as="geometry" />
        </mxCell>
        <mxCell id="E8r4IcUr0whJtbiXx9n1-71" value="&lt;font style=&quot;font-size: 42px;&quot;&gt;로그인&lt;/font&gt;" style="text;html=1;strokeColor=none;fillColor=none;align=center;verticalAlign=middle;whiteSpace=wrap;rounded=0;fontSize=16;" parent="1" vertex="1">
          <mxGeometry x="-323" y="759" width="370" height="292" as="geometry" />
        </mxCell>
      </root>
    </mxGraphModel>
  </diagram>
</mxfile>
